<svg viewBox="0 0 24 24" xmlns="http://www.w3.org/2000/svg"><path d="m12.11.01c.07.02.15.06.2.11 0 0 10.73 10.75 10.73 10.75.13.13.16.33.09.49-.02.04-.06.1-.09.12 0 0-4.61 4.66-4.61 4.66-.12.13-.33.16-.49.09-.24-.11-.33-.43-.18-.65.04-.06 4.31-4.36 4.35-4.41l-10.11-10.12-10.11 10.14c.07.07 4.29 4.34 4.35 4.41.17.24.04.6-.25.67-.15.04-.31-.01-.42-.12 0 0-4.61-4.66-4.61-4.66-.02-.03-.07-.09-.09-.12-.07-.16-.03-.37.09-.49 0 0 10.73-10.75 10.73-10.75.11-.11.28-.16.42-.12zm3.04 15.53c.2.04 1.04.27 1.12.5.06.16-.06.3-.12.44-.18.36-.35.73-.51 1.1-.06.14-.12.28-.17.43-.03.06-.04.12-.03.19.03.39.36.66.65.89.53.39 1.12.69 1.67 1.04.3.2.62.41.82.72.1.15.16.32.17.49.06.4-.04.8-.21 1.16-.22.45-.54.85-.89 1.2-.1.09-.19.19-.3.27-.2.06-1.16-.03-1.35-.14-.25-.25.07-.47.25-.63.17-.16.33-.32.48-.49.17-.2.34-.4.48-.63.08-.13.16-.28.17-.43 0-.04 0-.1-.01-.14-.04-.1-.12-.18-.19-.25-.62-.56-1.38-.93-2.06-1.41-.37-.26-.76-.54-1.03-.91-.11-.16-.2-.35-.2-.56.01-.31.14-.6.23-.89.14-.4.31-.8.48-1.19.07-.15.13-.29.2-.44.05-.16.15-.35.35-.32zm-7.6 0c.21.03 1.04.27 1.12.5.06.16-.06.3-.12.44-.18.37-.36.74-.52 1.12-.05.13-.11.27-.16.4-.03.06-.04.13-.03.19.03.39.37.66.66.89.52.39 1.11.68 1.66 1.04.3.2.61.41.82.71.1.15.16.32.18.5.06.38-.03.78-.19 1.13-.25.52-.63.98-1.05 1.37-.1.08-.2.19-.33.17-.16-.03-1.15-.01-1.23-.21-.18-.25.13-.43.29-.59.17-.16.33-.33.49-.5.17-.2.34-.4.48-.63.08-.13.15-.27.17-.43 0-.04 0-.09-.01-.13-.04-.1-.12-.17-.19-.24-.62-.56-1.38-.93-2.05-1.41-.38-.27-.76-.54-1.04-.92-.11-.16-.2-.35-.2-.56.01-.31.14-.6.23-.89.14-.4.31-.8.48-1.19.07-.15.13-.29.2-.44.04-.16.14-.35.34-.32zm2.51-6.52c-.14.5-.61.99-.7 1.35-.02.07.01.12.09.14l.7.17-.05.21c-.05.17.22.16.31.2.16.05.16-.2.19-.29.21.08.21-.09.24-.24.03-.1-.07-.14-.15-.16.01-.1.15-.36-.03-.39 0 0-.23-.05-.23-.05-.17-.06-.16.24-.2.33l-.35-.09c.24-.27.46-.6.62-.95.04-.1.13-.22-.02-.25-.11-.01-.37-.16-.42.02l0 0zm1.21 2.15c-.05.17.17.16.31.2.07.02.12-.02.14-.09.12-.66.5-1.15.91-1.42.07-.06.16-.33 0-.35 0 0-1.1-.26-1.1-.26-.15-.05-.15.16-.18.25-.09.19.5.21.82.32-.39.23-.8.76-.9 1.35l0 0zm2.45-1.43c-.59-.13-1.07.45-.63.89-.64.21-.55 1.06.15 1.15.71.18 1.24-.48.72-.96.59-.29.43-.93-.24-1.08zm-.39 1.64c-.27-.04-.23-.34-.05-.47l.1-.07.12.09c.32.15.2.59-.17.45zm.4-.82-.07.04-.13-.09c-.26-.11-.21-.4.09-.37.28.02.33.28.11.42zm1.16 1.61c.74.2 1.24-.47.72-.96.59-.29.46-.94-.24-1.08-.59-.11-1.07.45-.62.89-.64.21-.54 1.01.14 1.15l0 0zm.43-1.17-.14-.1c-.25-.11-.2-.4.1-.37.27.02.32.28.11.42l-.07.05 0 0zm-.33.77c-.27-.04-.23-.35-.05-.47l.1-.07.12.09c.31.15.2.59-.17.45l0 0zm3.22-2.16c-.07-.04-.14-.07-.22-.09-.03 0-5.96-1.42-8.37-1.99l.22-.97c.68-.07.72-1.14.05-1.27-.65-.16-1.07.79-.5 1.16l-.24.97c-.33-.08-.52-.12-.53-.12-.29-.08-.59.08-.75.31-.12.16-.78 3.12-.81 3.34-.02.3.17.59.45.7-.09.31-.22.87-.22.99.01.13.08.26.19.33.07.06 1.07.27 1.19.3.14.03.29-.03.4-.14.09-.08.22-.68.29-1.03 1.69.4 4.21.98 5.87 1.39-.1.32-.23.87-.23.99.01.13.08.25.19.32.07.07 1.07.27 1.19.31.15.02.3-.03.4-.14.09-.09.23-.71.29-1.05.12 0 .23-.02.34-.06.15-.07.27-.19.35-.33.07-.14.74-3.07.77-3.24.04-.27-.1-.53-.32-.68zm-.92 3.66c-.02.04-.05.07-.08.09-.04.02-.07.03-.11.02-.14-.02-9.35-2.21-9.35-2.21-.1-.02-.17-.12-.15-.22.01-.02.7-2.96.71-2.98 0-.02.01-.04.02-.05.03-.06.09-.09.16-.09.11.02 9.33 2.19 9.43 2.24.06.04.09.11.08.19-.02.05-.69 2.96-.71 3.01z"/></svg>
