<?xml version="1.0" standalone="no"?>
<!DOCTYPE svg PUBLIC "-//W3C//DTD SVG 20010904//EN"
 "http://www.w3.org/TR/2001/REC-SVG-20010904/DTD/svg10.dtd">
<svg version="1.0" xmlns="http://www.w3.org/2000/svg"
 width="512.000000pt" height="512.000000pt" viewBox="0 0 512.000000 512.000000"
 preserveAspectRatio="xMidYMid meet">

<g transform="translate(0.000000,512.000000) scale(0.100000,-0.100000)"
fill="#000000" stroke="none">
<path d="M2163 4020 c-98 -23 -200 -97 -250 -181 -128 -214 -49 -476 175 -582
l67 -32 244 -3 244 -3 -745 -747 c-857 -860 -803 -793 -803 -977 0 -92 3 -105
32 -167 41 -88 113 -160 201 -201 62 -29 75 -32 167 -32 184 0 117 -54 977
803 l747 745 3 -244 c3 -243 3 -244 31 -303 56 -119 137 -190 261 -228 163
-50 348 17 444 162 75 112 73 90 70 945 l-3 760 -29 62 c-32 69 -107 148 -174
182 -100 51 -103 51 -892 50 -404 -1 -749 -4 -767 -9z m1577 -200 c24 -14 58
-45 75 -68 l30 -44 0 -757 0 -758 -30 -49 c-79 -127 -247 -149 -348 -46 -68
70 -67 63 -67 542 0 236 -3 430 -7 430 -5 0 -408 -400 -898 -889 -946 -945
-908 -911 -1000 -911 -119 0 -225 106 -225 225 0 92 -34 54 911 1000 489 490
889 893 889 898 0 4 -195 7 -432 7 -401 0 -436 2 -473 19 -112 52 -163 182
-114 291 27 60 54 88 114 116 l50 24 740 -2 740 -3 45 -25z"/>
</g>
</svg>
