<?xml version="1.0" standalone="no"?>
<!DOCTYPE svg PUBLIC "-//W3C//DTD SVG 20010904//EN"
 "http://www.w3.org/TR/2001/REC-SVG-20010904/DTD/svg10.dtd">
<svg version="1.0" xmlns="http://www.w3.org/2000/svg"
 width="1001.000000pt" height="1000.000000pt" viewBox="0 0 1001.000000 1000.000000"
 preserveAspectRatio="xMidYMid meet">

<g transform="translate(0.000000,1000.000000) scale(0.100000,-0.100000)"
fill="#EC008C" stroke="">
<path d="M2490 8920 c-140 -25 -268 -112 -343 -231 -132 -208 -106 -466 65
-644 32 -32 58 -64 58 -70 0 -5 -32 -143 -70 -305 -39 -162 -78 -330 -88 -373
-15 -70 -19 -78 -37 -74 -11 2 -110 26 -220 52 -235 55 -312 63 -413 41 -175
-37 -324 -152 -403 -311 -38 -77 -117 -394 -350 -1395 -10 -47 -24 -103 -29
-125 -6 -22 -33 -137 -60 -255 -59 -253 -86 -366 -140 -592 -59 -247 -53 -388
23 -532 39 -75 175 -214 235 -240 49 -22 50 -26 23 -140 -11 -44 -38 -160 -61
-256 -23 -96 -51 -213 -62 -260 -41 -168 -19 -284 70 -375 75 -76 92 -82 527
-184 72 -17 204 -48 295 -70 222 -52 240 -55 307 -41 75 16 124 41 173 90 73
73 74 76 205 627 25 105 45 199 45 207 0 20 6 20 78 1 54 -14 142 -35 567
-135 99 -23 252 -60 340 -81 88 -21 286 -68 440 -104 154 -37 343 -81 420
-100 77 -18 192 -45 255 -60 63 -15 216 -51 340 -80 124 -30 351 -83 505 -120
154 -36 325 -76 380 -90 55 -13 141 -33 190 -45 50 -11 212 -50 360 -86 149
-35 299 -71 335 -79 207 -45 475 -114 475 -121 -1 -15 -24 -119 -65 -289 -90
-372 -100 -419 -100 -475 0 -75 31 -160 77 -211 69 -76 112 -95 359 -154 334
-81 613 -146 664 -157 63 -13 137 -2 206 31 111 53 159 126 202 306 52 216
142 602 142 607 0 3 35 8 78 11 220 17 417 160 495 357 26 66 33 94 87 330 17
74 45 191 61 260 80 337 170 716 220 930 23 96 61 258 85 360 24 102 55 232
69 290 13 58 36 153 49 212 36 150 41 227 22 318 -25 118 -77 213 -165 300
-123 122 -139 128 -636 246 -110 25 -281 66 -380 90 -361 86 -617 147 -1055
250 -102 24 -259 61 -350 82 -91 22 -253 60 -360 86 -107 25 -289 68 -405 96
-115 28 -239 57 -275 65 -36 7 -141 32 -235 55 -227 54 -409 98 -715 170 -140
33 -338 80 -440 104 -102 24 -275 65 -385 91 -110 26 -281 67 -380 90 -99 24
-270 64 -380 90 -110 26 -290 69 -400 95 -110 26 -272 64 -360 85 -196 45
-185 41 -185 59 0 8 18 88 39 178 109 453 131 548 131 561 0 9 18 19 47 26
218 55 372 242 389 471 17 225 -121 438 -338 518 -64 24 -182 35 -248 22z
m-740 -2065 c102 -24 358 -85 570 -135 212 -50 430 -102 485 -115 183 -44 788
-187 890 -211 55 -12 177 -41 270 -63 244 -59 415 -99 805 -192 190 -45 494
-116 675 -159 182 -43 377 -90 435 -103 58 -14 195 -46 305 -72 110 -26 281
-67 380 -90 99 -24 275 -66 390 -93 116 -27 298 -71 405 -96 540 -128 676
-160 805 -191 77 -18 230 -54 340 -80 578 -137 568 -134 603 -168 49 -47 57
-90 33 -189 -11 -46 -50 -209 -86 -363 -36 -154 -77 -325 -90 -380 -13 -55
-47 -199 -75 -320 -28 -121 -62 -265 -75 -320 -13 -55 -36 -148 -49 -206 -14
-58 -51 -213 -82 -345 -31 -131 -65 -277 -76 -324 -19 -83 -49 -139 -86 -159
-49 -26 -88 -22 -297 29 -345 84 -612 148 -1050 249 -350 82 -497 116 -640
150 -182 44 -754 180 -1085 258 -80 18 -172 40 -205 48 -159 38 -328 78 -400
95 -70 17 -315 75 -655 155 -58 14 -197 47 -310 74 -113 27 -277 65 -365 86
-88 21 -250 59 -360 85 -242 58 -594 142 -765 182 -130 30 -277 65 -515 123
-154 37 -662 157 -765 181 -172 39 -188 45 -225 85 -44 49 -45 83 -10 235 14
60 39 165 55 234 16 69 46 199 68 290 22 91 56 233 75 315 67 285 130 551 167
710 21 88 54 228 74 310 19 83 49 210 66 284 32 137 47 178 74 200 16 13 82
40 101 41 5 0 93 -20 195 -45z"/>
<path d="M2848 5985 c-11 -13 -42 -75 -68 -137 -50 -123 -182 -386 -241 -484
-44 -72 -148 -232 -166 -254 -82 -101 -107 -162 -107 -264 -1 -51 2 -61 24
-77 15 -11 134 -45 300 -84 151 -36 280 -67 286 -69 9 -3 6 -28 -8 -88 -24
-104 -21 -145 12 -169 27 -20 207 -69 253 -69 48 0 72 36 97 144 16 69 26 96
36 92 77 -30 125 -10 148 62 54 173 42 229 -54 249 -17 3 -30 10 -30 15 0 5
11 55 25 111 40 159 32 170 -139 211 -182 44 -186 42 -226 -135 -12 -51 -25
-97 -29 -101 -5 -6 -224 41 -269 57 -9 3 15 40 70 107 46 57 92 117 104 133
11 17 37 53 57 82 96 138 297 528 297 577 0 37 -42 59 -170 89 -144 34 -174
34 -202 2z"/>
<path d="M3912 5737 c-26 -28 -68 -192 -58 -230 8 -34 39 -54 112 -72 123 -30
533 -125 541 -125 4 0 -17 -16 -47 -37 -129 -86 -316 -264 -377 -360 -10 -15
-20 -30 -24 -33 -17 -14 -135 -222 -164 -291 -35 -82 -85 -241 -106 -342 -14
-68 -5 -98 38 -120 41 -21 236 -61 264 -54 34 9 55 50 78 156 75 343 268 680
508 888 38 32 70 61 73 64 3 3 34 27 70 53 35 26 70 56 78 67 20 28 42 116 42
165 0 66 -14 73 -245 128 -171 40 -355 84 -534 127 -191 46 -219 48 -249 16z"/>
<path d="M5495 5384 c-107 -21 -135 -29 -170 -47 -64 -32 -114 -77 -150 -136
-97 -155 -91 -356 16 -491 21 -27 39 -51 39 -53 0 -2 -35 -21 -77 -42 -139
-69 -220 -168 -249 -307 -52 -243 57 -428 308 -522 168 -63 335 -87 465 -67
251 40 416 242 401 491 -5 73 -36 168 -65 198 -7 7 -13 16 -13 20 0 4 -14 22
-30 41 -35 40 -37 48 -10 56 39 12 140 95 178 147 62 85 77 136 77 263 0 101
-3 114 -29 164 -73 141 -246 233 -515 277 -84 14 -135 16 -176 8z m198 -343
c128 -35 179 -93 157 -179 -6 -26 -20 -61 -31 -79 -25 -40 -115 -107 -134
-100 -7 3 -57 38 -110 77 -125 92 -144 132 -108 221 12 32 26 46 57 60 52 24
85 24 169 0z m-128 -625 c115 -81 138 -113 143 -191 6 -114 -56 -185 -163
-185 -58 0 -172 29 -209 54 -82 53 -84 193 -5 289 29 36 114 97 133 97 6 0 52
-29 101 -64z"/>
<path d="M6745 5061 c-80 -21 -157 -66 -207 -120 -82 -90 -113 -184 -106 -318
6 -99 29 -161 84 -230 19 -23 34 -45 34 -50 0 -4 -29 -21 -65 -37 -73 -32 -92
-45 -150 -102 -85 -83 -120 -181 -119 -334 1 -83 4 -103 29 -155 60 -128 187
-216 405 -281 85 -25 110 -28 235 -28 164 -1 217 12 312 75 143 93 211 236
201 419 -6 99 -36 172 -102 248 -37 42 -39 46 -22 56 123 73 188 140 236 241
31 67 40 230 16 300 -46 137 -175 229 -416 296 -81 22 -309 35 -365 20z m301
-342 c78 -24 120 -61 130 -115 13 -69 -51 -176 -130 -219 l-34 -19 -54 37
c-115 80 -154 114 -172 150 -17 35 -17 43 -5 90 26 96 116 122 265 76z m-156
-618 c110 -80 143 -126 142 -198 -3 -129 -86 -197 -212 -173 -134 25 -191 57
-217 119 -28 67 5 182 70 241 45 41 99 79 112 80 6 0 53 -31 105 -69z"/>
</g>
</svg>
