<svg width="378" height="113" xmlns="http://www.w3.org/2000/svg" xmlns:xlink="http://www.w3.org/1999/xlink" xml:space="preserve" overflow="hidden"><g><text fill="#FFFFFF" font-family="Arial Black,Arial Black_MSFontService,sans-serif" font-weight="900" font-size="29" transform="matrix(1.3288 0 0 1.3288 115.241 70)">N</text><text fill="#FFFFFF" font-family="Arial Black,Arial Black_MSFontService,sans-serif" font-weight="900" font-size="29" transform="matrix(1.3288 0 0 1.3288 147.364 70)">O</text><text fill="#FFFFFF" font-family="Arial Black,Arial Black_MSFontService,sans-serif" font-weight="900" font-size="29" transform="matrix(1.3288 0 0 1.3288 179.488 70)">C</text><text fill="#FFFFFF" font-family="Arial Black,Arial Black_MSFontService,sans-serif" font-weight="900" font-size="29" transform="matrix(1.3288 0 0 1.3288 209.49 70)">T</text><text fill="#FFFFFF" font-family="Arial Black,Arial Black_MSFontService,sans-serif" font-weight="900" font-size="29" transform="matrix(1.3288 0 0 1.3288 237.333 70)">U</text><text fill="#FFFFFF" font-family="Arial Black,Arial Black_MSFontService,sans-serif" font-weight="900" font-size="29" transform="matrix(1.3288 0 0 1.3288 269.457 70)">S</text><text fill="#FFFFFF" font-family="Arial Black,Arial Black_MSFontService,sans-serif" font-weight="900" font-size="29" transform="matrix(1.3288 0 0 1.3288 297.3 70)"> </text><text fill="#FFFFFF" font-family="Arial,Arial_MSFontService,sans-serif" font-weight="400" font-size="29" transform="matrix(1.3288 0 0 1.3288 310.141 70)">3</text><text fill="#FFFFFF" font-family="Arial,Arial_MSFontService,sans-serif" font-weight="400" font-size="29" transform="matrix(1.3288 0 0 1.3288 331.583 70)">D</text><path d="M0 0C3.05357-3.05357 6.61076-5.45205 10.5719-7.12766 14.6739-8.86174 19.0297-9.7414 23.5197-9.7414 28.0084-9.7414 32.3642-8.86174 36.4661-7.12766 40.4273-5.45205 43.9845-3.05357 47.038 1.18021e-15 50.0916 3.05357 52.4901 6.61076 54.1657 10.5719 55.8998 14.6739 56.7794 19.0297 56.7794 23.5197 56.7794 28.0084 55.8998 32.3642 54.1657 36.4661 52.4901 40.4273 50.0916 43.9845 47.038 47.038 43.9845 50.0916 40.4273 52.4901 36.4661 54.1657 32.3642 55.8998 28.0084 56.7794 23.5197 56.7794 19.3566 56.7794 15.3091 56.022 11.4728 54.5298 11.4901 54.2587 11.5007 53.9863 11.5007 53.7126 11.5007 53.2555 11.4755 52.8024 11.4276 52.3546 15.1469 53.9159 19.2317 54.7796 23.5197 54.7796 40.7834 54.7796 54.7796 40.7834 54.7796 23.5197 54.7796 6.25464 40.7834-7.74156 23.5197-7.74156 6.25464-7.74156-7.74156 6.25464-7.74156 23.5197-7.74156 28.3339-6.65195 32.8943-4.70792 36.9671-5.50653 36.7452-6.32507 36.5512-7.15955 36.3851-8.87237 32.307-9.7414 27.9791-9.7414 23.5197-9.7414 19.0297-8.86174 14.6739-7.12766 10.5719-5.45205 6.61076-3.05357 3.05357 0 0" fill="#FFFFFF" transform="matrix(1 0 0 -1 37.3666 80.019)"/><path d="M0 0C-2.13272 5.04278-5.18629 9.57132-9.07435 13.4607-12.9637 17.3488-17.4923 20.4023-22.535 22.535-27.7585 24.7448-33.3049 25.865-39.0201 25.865-44.4177 25.865-49.6624 24.8644-54.6268 22.8952-54.1723 22.357-53.7551 21.8029-53.3804 21.2315-48.9183 22.931-44.0788 23.8638-39.0201 23.8638-16.7362 23.8638 1.3288 5.79886 1.3288-16.485 1.3288-38.7689-16.7362-56.8339-39.0201-56.8339-61.3053-56.8339-79.3703-38.7689-79.3703-16.485-79.3703-12.2316-78.7099-8.13356-77.4901-4.28404-78.185-4.26809-78.8733-4.23354-79.5537-4.18039-80.7589-8.14818-81.3701-12.2701-81.3701-16.485-81.3701-22.2015-80.25-27.7479-78.0415-32.9701-75.9075-38.0129-72.8552-42.5414-68.9658-46.4308-65.0778-50.3188-60.5492-53.3724-55.5051-55.5051-50.283-57.7149-44.7366-58.8338-39.0201-58.8338-33.3049-58.8338-27.7585-57.7149-22.535-55.5051-17.4923-53.3724-12.9637-50.3188-9.07435-46.4308-5.18629-42.5414-2.13272-38.0129 1.53427e-14-32.9701 2.20846-27.7479 3.32863-22.2015 3.32863-16.485 3.32863-10.7686 2.20846-5.22217 0 0" fill="#FFFFFF" transform="matrix(1 0 0 -1 99.9061 40.0151)"/><path d="M69.4455 38.7623 75.0291 38.7623 75.0291 74.4112 69.4455 74.4112ZM77.2615 36.5286 67.2132 36.5286 67.2132 76.6423 77.2615 76.6423ZM45.3266 38.6653 47.9509 38.6653C49.4578 38.6653 50.3746 38.6719 50.9341 38.6786 50.9925 39.9223 51.0537 42.944 51.0537 50.1129L51.0537 66.0146 53.593 62.4561 61.8329 49.3967C61.8395 50.1674 61.8422 51.1121 61.8422 52.2708L61.8422 58.5215 57.9342 64.82C56.4286 67.2543 54.6733 70.0236 52.7186 73.0505L51.9426 74.2664 45.3266 74.2664ZM47.9509 36.4329 43.0942 36.4329 43.0942 76.4988 53.1651 76.4988 54.5976 74.2571C56.5575 71.2221 58.3195 68.441 59.8317 65.996L64.0745 59.158 64.0745 52.2708C64.0745 50.0983 64.0626 48.4452 64.0387 47.3543 64.0267 46.7896 64.0107 46.3736 63.9921 46.0826 63.9284 45.1206 63.5324 44.6329 62.8148 44.6329L62.1996 44.6329 53.286 58.7593 53.286 50.1129C53.286 45.987 53.2661 42.8377 53.2262 40.7528 53.2063 39.7018 53.1797 38.8939 53.1492 38.353 53.1027 37.5146 53.0641 36.8515 52.3479 36.5618L52.2788 36.5366C52.0556 36.4635 51.9626 36.4329 47.9509 36.4329" fill="#FFFFFF" transform="matrix(1 0 0 -1 0.666447 113)"/></g></svg>