<?xml version="1.0" standalone="no"?>
<!DOCTYPE svg PUBLIC "-//W3C//DTD SVG 20010904//EN"
 "http://www.w3.org/TR/2001/REC-SVG-20010904/DTD/svg10.dtd">
<svg version="1.0" xmlns="http://www.w3.org/2000/svg"
 width="700.000000pt" height="700.000000pt" viewBox="0 0 700.000000 700.000000"
 preserveAspectRatio="xMidYMid meet">
<metadata>
Created by potrace 1.14, written by Peter Selinger 2001-2017
</metadata>
<g transform="translate(0.000000,700.000000) scale(0.100000,-0.100000)"
fill="#000000" stroke="none">
<path d="M3445 6988 c-23 -13 -3159 -3152 -3182 -3185 -18 -28 -24 -91 -10
-118 5 -11 128 -139 273 -285 144 -146 458 -462 696 -702 388 -392 437 -438
472 -444 101 -18 185 104 129 186 -9 14 -112 122 -229 240 -117 118 -399 404
-628 635 l-415 420 424 425 c234 234 897 900 1475 1480 l1050 1055 1474 -1476
1474 -1476 -241 -245 c-133 -136 -399 -406 -592 -600 -477 -483 -455 -458
-455 -509 0 -53 30 -102 73 -120 82 -34 98 -23 402 286 149 150 446 451 660
668 215 216 404 409 422 428 37 40 47 89 28 137 -19 43 -3149 3180 -3192 3198
-39 17 -81 17 -108 2z"/>
<path d="M2775 5448 c-112 -62 -148 -211 -70 -297 l33 -37 -24 -94 c-13 -52
-26 -105 -28 -118 -8 -40 -17 -62 -26 -62 -5 0 -48 9 -95 20 -47 11 -99 18
-115 15 -73 -13 -131 -51 -156 -103 -15 -32 -50 -143 -58 -187 -2 -11 -12 -49
-21 -85 -9 -36 -18 -72 -20 -80 -2 -8 -11 -46 -20 -85 -9 -38 -19 -81 -21 -95
-3 -14 -17 -74 -31 -135 -70 -301 -73 -338 -35 -409 16 -29 42 -59 65 -73 26
-17 36 -29 33 -41 -25 -83 -48 -188 -53 -239 -5 -52 -3 -65 15 -91 27 -36 45
-44 206 -82 279 -67 293 -60 351 188 22 94 30 112 43 108 10 -3 78 -19 152
-35 74 -17 297 -69 495 -116 198 -47 369 -87 380 -89 11 -2 47 -11 80 -19 33
-9 71 -18 85 -21 19 -3 234 -55 415 -100 6 -2 27 -6 48 -11 33 -6 38 -11 32
-29 -8 -30 -11 -41 -34 -136 -31 -134 -31 -165 4 -202 23 -25 110 -58 188 -72
15 -3 35 -7 45 -10 9 -3 28 -7 42 -10 14 -3 50 -10 80 -17 48 -11 60 -10 92 5
23 11 43 31 53 53 14 29 45 145 69 256 4 17 13 27 24 27 63 0 147 52 176 109
16 30 130 489 162 646 2 11 19 85 38 165 37 157 38 198 6 259 -38 76 -75 93
-330 152 -74 17 -207 48 -295 69 -157 38 -258 62 -422 101 -46 10 -122 28
-170 40 -49 12 -95 22 -103 24 -8 2 -103 25 -210 50 -107 26 -202 48 -210 50
-8 2 -82 20 -165 40 -82 20 -160 38 -173 41 -50 10 -487 116 -490 119 -2 2 2
30 9 62 7 32 14 64 15 72 4 20 25 113 30 132 3 9 17 19 33 22 15 3 42 17 58
31 99 83 84 258 -27 314 -48 24 -121 29 -155 10z m-165 -763 c63 -15 151 -35
195 -45 148 -35 769 -181 880 -207 61 -14 209 -49 330 -78 121 -30 299 -72
395 -95 96 -23 240 -57 320 -76 157 -38 266 -64 290 -69 95 -20 198 -51 213
-63 22 -19 21 -31 -4 -133 -11 -46 -22 -91 -24 -99 -2 -8 -15 -67 -30 -130
-15 -63 -34 -142 -41 -175 -55 -244 -93 -389 -107 -402 -14 -15 -24 -15 -79
-4 -89 17 -70 13 -443 101 -187 45 -387 92 -445 105 -58 14 -161 38 -230 55
-69 17 -163 39 -210 50 -47 10 -161 37 -255 60 -93 22 -267 63 -385 91 -118
28 -296 71 -395 94 -99 24 -196 47 -215 51 -45 10 -39 9 -80 18 -43 10 -79 41
-74 64 2 9 18 76 35 147 17 72 32 137 34 145 2 8 26 112 54 230 29 118 59 247
68 287 17 77 41 114 70 108 10 -2 70 -16 133 -30z"/>
<path d="M2958 4393 c-9 -3 -22 -20 -29 -40 -14 -43 -46 -102 -126 -236 -67
-110 -83 -156 -61 -174 7 -6 58 -21 113 -33 55 -12 101 -23 102 -24 1 -1 -2
-18 -7 -39 -9 -43 4 -63 48 -73 15 -3 32 -7 39 -9 18 -6 43 23 50 57 4 19 10
27 20 24 43 -17 74 92 32 115 -15 8 -19 17 -14 32 20 69 13 81 -55 96 -54 12
-66 4 -75 -50 -5 -31 -11 -39 -23 -35 -10 3 -33 8 -53 11 l-37 7 52 69 c76
101 160 259 145 273 -10 9 -105 32 -121 29z"/>
<path d="M3336 4294 c-19 -19 -32 -82 -19 -95 5 -5 59 -21 120 -36 l110 -26
-48 -39 c-98 -77 -194 -234 -206 -336 -6 -56 1 -65 69 -75 45 -7 49 -1 72 83
31 114 81 196 183 297 93 93 111 126 81 151 -7 5 -76 24 -153 41 -77 17 -152
36 -167 41 -21 7 -32 5 -42 -6z"/>
<path d="M3925 4163 c-92 -18 -155 -80 -155 -153 0 -37 27 -100 43 -100 6 0
-11 -14 -38 -32 -95 -63 -110 -175 -34 -256 54 -57 201 -83 280 -49 102 43
139 148 81 232 l-28 40 30 20 c94 64 95 179 3 246 -51 37 -135 61 -182 52z
m112 -156 c12 -26 3 -55 -25 -80 -18 -17 -23 -17 -49 -4 -65 34 -82 90 -35
113 33 16 97 -1 109 -29z m-92 -199 c33 -22 45 -43 45 -80 0 -26 -34 -56 -61
-53 -13 1 -32 3 -41 4 -32 2 -59 42 -52 76 7 34 40 75 61 75 7 0 29 -10 48
-22z"/>
<path d="M4355 4032 c-105 -49 -133 -142 -69 -229 15 -21 15 -22 -9 -28 -62
-16 -111 -108 -95 -178 17 -78 80 -130 181 -148 193 -36 315 109 214 254 -19
27 -19 29 -1 43 11 8 26 19 35 24 23 13 49 72 49 110 0 117 -183 208 -305 152z
m157 -132 c22 -27 15 -59 -17 -88 l-26 -22 -40 27 c-51 36 -61 69 -28 96 29
24 86 17 111 -13z m-79 -212 c78 -71 32 -151 -69 -118 -20 7 -39 21 -44 34
-14 37 30 115 66 116 6 0 27 -15 47 -32z"/>
<path d="M2143 2448 c-11 -13 -34 -54 -51 -93 -16 -38 -56 -133 -89 -210 -94
-219 -154 -399 -160 -481 -5 -62 -2 -79 20 -126 13 -30 35 -68 48 -83 86 -102
255 -232 514 -395 83 -52 152 -98 153 -102 2 -5 8 -8 14 -8 6 0 47 -28 92 -62
188 -143 198 -166 136 -293 -40 -81 -141 -205 -272 -333 -60 -59 -114 -118
-119 -131 -19 -48 23 -97 91 -108 52 -8 117 -14 204 -18 117 -6 127 -2 227
102 161 167 272 349 297 488 4 22 7 81 7 131 -1 82 -4 97 -33 156 -54 111
-158 195 -452 368 -349 205 -481 327 -481 447 -1 48 57 189 185 455 62 128 68
164 34 195 -45 41 -209 106 -298 118 -39 5 -49 3 -67 -17z"/>
<path d="M4361 2449 c-13 -12 -30 -38 -38 -58 -8 -20 -26 -60 -39 -89 -13 -29
-36 -80 -50 -115 -14 -34 -34 -80 -44 -102 -34 -75 -111 -296 -126 -363 -9
-38 -13 -85 -10 -109 20 -146 170 -289 566 -539 349 -220 450 -305 450 -380 0
-86 -135 -275 -319 -448 -108 -101 -120 -120 -106 -166 7 -24 58 -49 109 -55
17 -2 47 -6 66 -9 50 -9 195 -14 224 -9 27 6 136 108 201 188 22 28 43 52 46
55 16 12 103 156 124 205 49 110 70 255 51 353 -16 85 -88 179 -201 262 -32
24 -143 94 -245 155 -253 152 -316 194 -393 265 -77 71 -102 108 -117 174 -10
44 -8 56 16 120 32 84 62 151 155 346 38 80 69 154 69 165 0 52 -82 102 -246
149 -107 31 -114 32 -143 5z"/>
</g>
</svg>
